X Lossless Decoder version 20211018 (154.0)

XLD extraction logfile from 2022-04-20 20:05:53 +0900

Andy Partridge / My Failed Song Writing Career, Vol.2

Used drive : PIONEER BD-RW   BDR-X12U (revision 1.03)
Media type : Pressed CD

Ripper mode             : XLD Secure Ripper
Disable audio cache     : OK for the drive with a cache less than 1375KiB
Make use of C2 pointers : NO
Read offset correction  : 667
Max retry count         : 20
Gap status              : Analyzed, Appended

TOC of the extracted CD
     Track |   Start  |  Length  | Start sector | End sector 
    ---------------------------------------------------------
        1  | 00:00:00 | 03:26:65 |         0    |    15514   
        2  | 03:26:65 | 03:28:70 |     15515    |    31184   
        3  | 06:55:60 | 02:55:06 |     31185    |    44315   
        4  | 09:50:66 | 02:29:25 |     44316    |    55515   

AccurateRip Summary
    Disc not found in AccurateRip DB.

All Tracks
    Filename : /Volumes/RavelStorage1TB/tmp/Andy Partridge - My Failed Song Writing Career, Vol.2.flac
    CRC32 hash               : 583BA5D4
    CRC32 hash (skip zero)   : 14DEB934
    Statistics
        Read error                           : 0
        Jitter error (maybe fixed)           : 0
        Retry sector count                   : 0
        Damaged sector count                 : 0

Track 01
    Pre-gap length : 00:02:00

    CRC32 hash               : 392952E9
    CRC32 hash (skip zero)   : 689CEB35
    AccurateRip v1 signature : A326A671
    AccurateRip v2 signature : 830C2C80
        ->Track not present in AccurateRip database.
    Statistics
        Read error                           : 0
        Jitter error (maybe fixed)           : 0
        Retry sector count                   : 0
        Damaged sector count                 : 0

Track 02

    CRC32 hash               : 0D77792A
    CRC32 hash (skip zero)   : A0F026CF
    AccurateRip v1 signature : F2F8B177
    AccurateRip v2 signature : 8BD3F7D9
        ->Track not present in AccurateRip database.
    Statistics
        Read error                           : 0
        Jitter error (maybe fixed)           : 0
        Retry sector count                   : 0
        Damaged sector count                 : 0

Track 03

    CRC32 hash               : D7F1C354
    CRC32 hash (skip zero)   : 8CFA652E
    AccurateRip v1 signature : 3C6DF59C
    AccurateRip v2 signature : C5BF53D8
        ->Track not present in AccurateRip database.
    Statistics
        Read error                           : 0
        Jitter error (maybe fixed)           : 0
        Retry sector count                   : 0
        Damaged sector count                 : 0

Track 04

    CRC32 hash               : 3D206778
    CRC32 hash (skip zero)   : 0F481F2E
    AccurateRip v1 signature : 40F75A6A
    AccurateRip v2 signature : 39A436D2
        ->Track not present in AccurateRip database.
    Statistics
        Read error                           : 0
        Jitter error (maybe fixed)           : 0
        Retry sector count                   : 0
        Damaged sector count                 : 0

No errors occurred

End of status report
